<?xml version="1.0" encoding="UTF-8" standalone="no"?>
<svg
   xmlns:dc="http://purl.org/dc/elements/1.1/"
   xmlns:cc="http://creativecommons.org/ns#"
   xmlns:rdf="http://www.w3.org/1999/02/22-rdf-syntax-ns#"
   xmlns:svg="http://www.w3.org/2000/svg"
   xmlns="http://www.w3.org/2000/svg"
   id="SVGRoot"
   version="1.1"
   viewBox="0 0 1920 1080"
   height="1080px"
   width="1920px">
  <defs
     id="defs1393" />
  <metadata
     id="metadata1396">
    <rdf:RDF>
      <cc:Work
         rdf:about="">
        <dc:format>image/svg+xml</dc:format>
        <dc:type
           rdf:resource="http://purl.org/dc/dcmitype/StillImage" />
        <dc:title></dc:title>
      </cc:Work>
    </rdf:RDF>
  </metadata>
  <g
     id="layer1">
    <path
       id="path2112"
       d="m 977.40761,210.09614 7.1069,805.15266"
       style="fill:none;stroke:none;stroke-width:1.29984713px;stroke-linecap:butt;stroke-linejoin:miter;stroke-opacity:1" />
  </g>
  <g
     id="layer2">
    <circle
       r="55.707733"
       cy="601.15466"
       cx="243.60152"
       id="path2000"
       style="fill:none;fill-opacity:1;stroke:#000000;stroke-width:6.49923563;stroke-miterlimit:4;stroke-dasharray:none;stroke-opacity:1" />
    <path
       id="path2002"
       d="m 241.74465,658.71932 c 0,191.26321 0,237.68631 0,237.68631 l -92.84622,92.84626"
       style="fill:none;stroke:#000000;stroke-width:6.49923563;stroke-linecap:butt;stroke-linejoin:miter;stroke-miterlimit:4;stroke-dasharray:none;stroke-opacity:1" />
    <path
       id="path2004"
       d="m 241.74465,896.40563 89.13237,89.13236"
       style="fill:none;stroke:#000000;stroke-width:6.49923563;stroke-linecap:butt;stroke-linejoin:miter;stroke-miterlimit:4;stroke-dasharray:none;stroke-opacity:1" />
    <path
       id="path2010"
       d="m 316.02164,480.45456 -1.85693,-1.85692 c 0,0 -66.8493,258.1125 -74.27698,263.68326 L 373.58628,504.59458"
       style="fill:none;stroke:#000000;stroke-width:6.49923563;stroke-linecap:butt;stroke-linejoin:miter;stroke-miterlimit:4;stroke-dasharray:none;stroke-opacity:1" />
    <path
       id="path2057"
       d="m 231.32561,618.25155 c 3.71385,0 39.92388,-0.92846 39.92388,-0.92846 -12.92173,36.24154 -30.38439,18.66138 -39.92388,0.92846 z"
       style="fill:none;stroke:#000000;stroke-width:6.49923563;stroke-linecap:butt;stroke-linejoin:miter;stroke-miterlimit:4;stroke-dasharray:none;stroke-opacity:1" />
    <path
       id="path817-6-2"
       d="m 302.87628,608.49102 c 4.04175,-0.79426 8.31044,-2.99832 10.23369,-5.28408 1.91143,-2.27165 2.7202,-4.94243 4.33421,-14.31285 0.79512,-4.61631 1.51536,-7.02983 2.21469,-7.42117 0.74403,-0.41622 1.03636,-1.57838 1.03636,-4.11929 v -3.53929 l -2.79116,-0.34356 c -7.03075,-0.86582 -19.68527,-1.07104 -25.02998,-0.40575 -3.20088,0.39835 -8.52077,1.65606 -11.82172,2.79495 -5.24774,1.81055 -6.86813,2.07068 -12.89774,2.07068 -6.0296,0 -7.64999,-0.25981 -12.89773,-2.07068 -3.30096,-1.13889 -8.62072,-2.3966 -11.82172,-2.79495 -5.34472,-0.66516 -17.99924,-0.45994 -25.02999,0.40575 l -2.79116,0.34356 v 3.53929 c 0,2.56535 0.29,3.70152 1.05353,4.1289 0.72896,0.40821 1.42528,2.79575 2.25991,7.74956 0.66344,3.93796 1.55189,8.34209 1.97447,9.78697 2.14475,7.33478 12.69418,11.46447 24.3217,9.52104 2.67872,-0.44762 5.90455,-1.34422 7.16879,-1.99226 4.85792,-2.49017 9.11309,-8.57487 11.40953,-16.31501 2.15359,-7.25808 6.76441,-6.9597 8.9124,0.5769 2.01919,7.08511 6.46064,13.29843 11.28736,15.79076 4.33187,2.23681 12.79803,3.0849 18.87456,1.89073 z m -3.61656,-3.90384 c 7.00058,-2.19673 9.23294,-5.52077 9.25243,-13.77764 0.0183,-7.72235 -1.28112,-10.30027 -6.20598,-12.31179 l -3.61227,-1.47531 2.95532,0.40451 c 4.65761,0.63769 8.30616,2.49149 9.51878,4.83636 1.44049,2.78558 1.99098,10.13243 1.02558,13.68878 -1.242,4.57539 -4.25803,7.3078 -9.60444,8.7009 -5.91664,1.54175 -8.30212,1.49452 -3.32942,-0.0659 z m -55.82324,-0.27829 c 4.30145,-2.10716 7.2629,-5.1122 8.98636,-9.1185 1.68941,-3.92731 2.40628,-10.16358 1.3872,-12.06792 -0.71218,-1.33042 -4.68114,-3.16057 -10.94055,-5.04489 l -3.2838,-0.98852 3.2838,0.3608 c 3.69234,0.40577 11.42253,2.88036 13.73925,4.39833 2.02569,1.32728 2.39028,3.6971 1.29269,8.40235 -2.06246,8.84075 -6.39212,13.42396 -14.37526,15.2168 -3.05698,0.68651 -3.0861,0.30969 -0.0897,-1.15845 z"
       style="fill:#000000;stroke-width:0.65675777" />
  </g>
  <g
     id="layer3">
    <circle
       transform="scale(-1,1)"
       r="55.707733"
       cy="605.9494"
       cx="-1696.9122"
       id="path2000-6"
       style="fill:none;fill-opacity:1;stroke:#000000;stroke-width:6.49923563;stroke-miterlimit:4;stroke-dasharray:none;stroke-opacity:1" />
    <path
       id="path2002-7"
       d="m 1698.7691,663.51406 c 0,191.26322 0,237.68633 0,237.68633 l 92.8461,92.8462"
       style="fill:none;stroke:#000000;stroke-width:6.49923563;stroke-linecap:butt;stroke-linejoin:miter;stroke-miterlimit:4;stroke-dasharray:none;stroke-opacity:1" />
    <path
       id="path2004-5"
       d="m 1698.7691,901.20039 -89.1325,89.1324"
       style="fill:none;stroke:#000000;stroke-width:6.49923563;stroke-linecap:butt;stroke-linejoin:miter;stroke-miterlimit:4;stroke-dasharray:none;stroke-opacity:1" />
    <path
       id="path2010-3"
       d="m 1624.492,485.24931 1.857,-1.85692 c 0,0 66.8492,258.11249 74.277,263.68327 L 1566.9274,509.38933"
       style="fill:none;stroke:#000000;stroke-width:6.49923563;stroke-linecap:butt;stroke-linejoin:miter;stroke-miterlimit:4;stroke-dasharray:none;stroke-opacity:1" />
    <path
       id="path2057-5"
       d="m 1668.7583,621.98498 c 3.7139,0 39.9238,-0.92847 39.9238,-0.92847 -12.9216,36.24155 -30.3842,18.66138 -39.9238,0.92847 z"
       style="fill:none;stroke:#000000;stroke-width:6.49923563;stroke-linecap:butt;stroke-linejoin:miter;stroke-miterlimit:4;stroke-dasharray:none;stroke-opacity:1" />
    <path
       id="path817-6"
       d="m 1642.311,609.51406 c -4.0418,-0.79426 -8.3104,-2.99831 -10.2337,-5.28408 -1.9114,-2.27165 -2.7202,-4.94242 -4.3342,-14.31285 -0.7951,-4.61631 -1.5154,-7.02982 -2.2147,-7.42117 -0.744,-0.41622 -1.0364,-1.57838 -1.0364,-4.11929 v -3.53929 l 2.7912,-0.34356 c 7.0308,-0.86582 19.6853,-1.07103 25.03,-0.40575 3.2009,0.39835 8.5207,1.65608 11.8217,2.79495 5.2478,1.81055 6.8682,2.0707 12.8977,2.0707 6.0297,0 7.6501,-0.25983 12.8979,-2.0707 3.3009,-1.13887 8.6207,-2.3966 11.8216,-2.79495 5.3448,-0.66516 17.9993,-0.45994 25.03,0.40575 l 2.7912,0.34356 v 3.53929 c 0,2.56535 -0.29,3.70152 -1.0535,4.1289 -0.729,0.40822 -1.4254,2.79575 -2.2599,7.74958 -0.6635,3.93794 -1.552,8.34208 -1.9746,9.78696 -2.1447,7.33477 -12.6941,11.46446 -24.3217,9.52103 -2.6787,-0.4476 -5.9044,-1.34422 -7.1687,-1.99225 -4.8579,-2.49018 -9.1131,-8.57487 -11.4096,-16.31502 -2.1535,-7.25808 -6.7644,-6.95969 -8.9124,0.57691 -2.0192,7.0851 -6.4606,13.29842 -11.2873,15.79075 -4.3319,2.23682 -12.7981,3.0849 -18.8746,1.89073 z m 3.6165,-3.90384 c -7.0005,-2.19672 -9.2329,-5.52076 -9.2523,-13.77764 -0.018,-7.72235 1.2811,-10.30027 6.2059,-12.31178 l 3.6123,-1.47531 -2.9553,0.40451 c -4.6576,0.63769 -8.3062,2.49148 -9.5188,4.83635 -1.4405,2.78559 -1.991,10.13243 -1.0256,13.68878 1.242,4.57539 4.2581,7.3078 9.6044,8.7009 5.9167,1.54176 8.3022,1.49452 3.3294,-0.0658 z m 55.8233,-0.27829 c -4.3015,-2.10716 -7.2628,-5.1122 -8.9863,-9.1185 -1.6894,-3.9273 -2.4063,-10.16358 -1.3872,-12.06792 0.7121,-1.33042 4.6811,-3.16056 10.9406,-5.04489 l 3.2838,-0.98852 -3.2838,0.36081 c -3.6924,0.40576 -11.4227,2.88036 -13.7393,4.39832 -2.0257,1.32729 -2.3903,3.6971 -1.2927,8.40235 2.0624,8.84075 6.392,13.42396 14.3753,15.21681 3.0569,0.68652 3.086,0.30969 0.089,-1.15846 z"
       style="fill:#000000;stroke-width:0.65675777" />
  </g>
  <g
     style="display:inline"
     id="layer4">
    <path
       id="path817"
       d="m 977.40761,210.09614 c -18.3453,-1.34449 -34.40002,-7.75086 -48.14809,-19.21263 -10.52198,-8.77229 -18.47163,-19.44004 -23.81603,-31.95955 -7.00292,-16.40411 -8.42334,-35.57321 -3.95266,-53.34157 3.16024,-12.560164 8.93671,-23.909124 17.17857,-33.750394 1.81751,-2.17028 7.85892,-8.211682 10.02917,-10.029233 13.27513,-11.117646 28.52824,-17.607739 45.71724,-19.452392 2.7844,-0.2988 12.2661,-0.298485 15.5197,5.54e-4 6.0289,0.554043 9.4987,1.131907 14.37789,2.394502 21.4534,5.55152 40.095,19.807124 51.4349,39.333129 7.7547,13.35331 11.8047,29.271804 11.3459,44.596264 -0.4748,15.86137 -5.052,30.41469 -13.7122,43.59846 -6.1159,9.31044 -14.4776,17.67405 -23.8609,23.86632 -3.7683,2.4869 -5.2111,3.32316 -9.0336,5.23582 -9.1199,4.56347 -18.6939,7.32945 -29.24319,8.44855 -3.3593,0.35637 -10.7142,0.50108 -13.8367,0.27223 z m 1.5895,-7.25673 c 3.4113,-0.89027 11.6001,-4.18784 16.5755,-6.67495 11.69409,-5.84547 21.58989,-13.71949 29.14869,-23.19329 4.5792,-5.73923 7.9707,-11.46757 10.9105,-18.42804 0.68,-1.60985 1.2362,-2.97099 1.2362,-3.02473 0,-0.21068 -4.3577,-3.83132 -7.1052,-5.90327 -4.1349,-3.11823 -9.0444,-6.30641 -12.0149,-7.80234 l -1.3249,-0.66724 -0.3325,0.43918 c -0.1827,0.24155 -1.1541,1.78545 -2.1585,3.4309 -1.0044,1.64545 -2.5355,4.0435 -3.4021,5.32902 -11.65849,17.29014 -28.97229,30.26763 -47.75579,35.79516 -6.7788,1.99486 -12.31121,2.87067 -19.21034,3.04115 -3.88659,0.0961 -10.2263,-0.16392 -10.97145,-0.44988 -0.68918,-0.26444 -0.0391,0.48409 1.54225,1.77679 3.37931,2.76177 8.62558,6.18289 13.16886,8.58742 7.19098,3.80584 16.96018,6.87634 25.33608,7.96329 1.7081,0.22164 5.1189,0.104 6.3576,-0.21917 z m 24.47669,-1.81842 c 15.2092,-4.21354 29.2944,-13.34786 39.4762,-25.60054 1.3319,-1.60281 5.465,-7.23553 5.6359,-7.68059 0.2364,-0.61619 -6.085,-10.55022 -6.7137,-10.55022 -0.085,0 -0.9357,1.61973 -1.8907,3.59941 -4.2597,8.83025 -8.8947,15.38044 -16.0554,22.68961 -6.3754,6.50756 -13.2124,11.80794 -20.2474,15.69681 -3.79579,2.0983 -4.57119,2.56774 -4.48139,2.71316 0.1131,0.18394 1.48489,-0.0942 4.27649,-0.86764 z m -53.45916,-22.86662 c 7.37837,-1.0735 13.66577,-2.90266 20.41397,-5.93887 14.6481,-6.59073 26.8576,-17.24658 35.95479,-31.37978 1.2932,-2.00904 3.3724,-5.91764 3.3724,-6.33974 0,-0.33308 -1.0818,-0.78531 -4.7032,-1.96627 -4.1152,-1.34187 -7.84389,-2.20516 -11.00349,-2.54751 -3.1648,-0.3429 -9.704,-0.5814 -10.7192,-0.39091 -0.7373,0.13828 -2.4614,1.42838 -5.2678,3.94132 -9.4731,8.48276 -23.2886,14.93108 -36.83562,17.19294 -5.09978,0.85149 -8.2297,1.10526 -13.74329,1.11436 -6.58997,0.0109 -10.94025,-0.4613 -16.17283,-1.75531 -1.22362,-0.30262 -2.26631,-0.5087 -2.31706,-0.45798 -0.12084,0.12089 0.57573,2.30145 1.52018,4.75828 1.00531,2.61482 3.41692,7.62368 4.95145,10.28404 2.79815,4.85098 6.66148,10.32446 7.76328,10.99873 1.29383,0.7917 5.50479,1.8382 9.86453,2.45144 3.888,0.54689 3.72608,0.5386 9.25565,0.47458 3.84909,-0.0446 5.6704,-0.14892 7.66624,-0.43932 z M 1053.3176,159.1062 c 3.427,-7.02865 5.911,-16.10943 6.9237,-25.31157 l 0.4039,-3.66831 -0.6016,-1.19323 c -2.8849,-5.7231 -5.768,-9.71174 -10.2608,-14.1954 -6.9466,-6.93229 -14.7432,-11.83287 -24.8764,-15.636184 -7.7744,-2.91805 -16.186,-4.49932 -24.90819,-4.68238 -8.1065,-0.17017 -15.9456,0.74756 -22.3583,2.6175 -1.8962,0.55292 -2.2891,0.87345 -2.2891,1.8676 0,1.920274 2.0603,9.280754 3.8859,13.881724 1.8482,4.65843 4.2458,8.9991 5.3816,9.74337 0.3517,0.23037 1.3393,0.32618 4.6119,0.44732 5.8224,0.21552 9.3388,0.79255 15.38339,2.52444 8.7275,2.5006 18.929,7.52912 26.9177,13.2683 7.9445,5.70744 13.6382,11.37423 18.6016,18.51376 1.5905,2.28758 2.2224,3.0852 2.4445,3.0852 0.069,0 0.4017,-0.56797 0.7402,-1.26214 z M 936.36491,144.85072 c 5.24225,-0.67177 9.24435,-1.45539 9.90681,-1.93973 0.35046,-0.25628 0.20908,-0.63028 -2.37771,-6.28945 -5.26126,-11.51037 -7.88977,-22.84439 -8.08744,-34.8723 -0.15312,-9.315474 1.20721,-17.814284 4.31963,-26.987804 1.67711,-4.94334 3.95266,-9.628543 7.3323,-15.097344 1.14875,-1.858824 2.08864,-3.485365 2.08864,-3.614563 0,-0.425508 -6.0088,3.038003 -10.37745,5.981691 -3.89669,2.625633 -7.22004,5.406376 -11.14129,9.322426 -4.81735,4.81085 -9.36802,10.54757 -10.14762,12.79221 -0.28439,0.81891 -1.80903,7.90136 -2.27989,10.59152 -0.88295,5.04289 -1.25341,12.864684 -0.85035,17.950354 0.66191,8.35113 2.66035,15.91947 5.89992,22.34445 1.48824,2.95132 4.45971,7.91996 5.85992,9.79817 l 0.47413,0.63602 3.19436,-0.11608 c 1.75687,-0.0638 4.54056,-0.28865 6.18604,-0.49951 z m -18.0438,-0.0746 c 0,-0.0399 -0.99628,-2.0383 -2.21382,-4.44084 -1.21754,-2.40253 -2.49268,-5.04138 -2.83368,-5.8641 -2.18014,-5.26111 -3.76629,-11.15642 -4.47754,-16.64146 -0.17387,-1.34146 -0.94608,-9.55212 -0.94608,-10.06009 0,-0.44147 -0.33123,0.1838 -0.5252,0.99141 -0.31884,1.3277 -1.11746,6.22592 -1.43184,8.78262 -0.54922,4.46615 -0.33057,16.3549 0.38871,21.13463 0.33286,2.21145 0.62453,3.06073 1.14745,3.34059 1.33034,0.71195 10.892,3.13243 10.892,2.75724 z m 37.0417,-4.86394 c 4.5152,-1.91117 8.152,-3.85104 11.9796,-6.38972 3.6917,-2.44856 6.2897,-4.61232 9.0245,-7.51619 l 1.2804,-1.35956 -1.8909,-3.78246 c -2.2565,-4.51381 -3.4446,-7.45236 -4.7116,-11.65364 -4.7348,-15.699724 -4.0011,-35.206134 1.8778,-49.929128 0.9897,-2.478428 2.3231,-5.212698 4.0885,-8.384072 0.6275,-1.127093 1.0695,-2.120566 0.9824,-2.207719 -0.2004,-0.200388 -6.5737,0.623755 -10.8363,1.401246 l -3.2436,0.591644 -3.0036,3.095358 c -4.2869,4.417918 -6.84741,7.650103 -9.22739,11.647881 -4.6714,7.847046 -7.46531,16.273646 -8.78848,26.506766 -0.40675,3.14554 -0.55846,10.998724 -0.28059,14.519274 0.74581,9.44619 3.21577,19.06387 6.99923,27.25324 1.20461,2.60742 3.52395,7.03 3.68674,7.03 0.0652,0 0.99399,-0.37031 2.06329,-0.82292 z m 104.42709,-24.67544 c 0.053,-0.14061 -0.1627,-1.5483 -0.4815,-3.12817 -2.7547,-13.654744 -7.8099,-24.678304 -15.9817,-34.851434 -3.2229,-4.01209 -4.6927,-5.28119 -8.3861,-7.24031 -7.6395,-4.05224 -17.3075,-7.273549 -25.3719,-8.45362 -8.5485,-1.25089 -16.20499,-0.754637 -24.46429,1.585562 -4.5947,1.301879 -6.8422,2.21913 -7.4083,3.023498 -1.178,1.67328 -2.6036,9.11016 -3.1105,16.22603 -0.207,2.9055 -0.172,8.2854 0.055,8.51274 0.06,0.0601 1.5465,-0.23245 3.303,-0.65004 4.2146,-1.00193 8.9002,-1.78909 12.9266,-2.17157 4.0363,-0.38343 13.31119,-0.28114 17.01139,0.18763 20.4092,2.58551 37.2353,11.11945 49.6965,25.205314 0.9781,1.10553 1.8536,2.01007 1.9458,2.01007 0.092,0 0.2118,-0.11504 0.2657,-0.2557 z M 983.95631,56.685125 c 5.0722,-1.432217 8.9349,-1.958463 15.3658,-2.093453 5.63709,-0.118287 8.05409,0.04716 13.00949,0.890465 1.7769,0.302363 3.3293,0.549751 3.4498,0.549751 0.4883,0 -0.2311,-0.386507 -2.2862,-1.228451 -5.0054,-2.050735 -9.4791,-3.420108 -15.24929,-4.667663 -4.0272,-0.870719 -11.0985,-1.722475 -11.8687,-1.429642 -0.3326,0.126471 -1.0484,1.126757 -2.4508,3.424956 -2.0396,3.342301 -2.7791,4.676943 -2.7791,5.015255 0,0.296528 0.2998,0.24729 2.809,-0.461218 z"
       style="fill:#000000;stroke-width:6.49923563;stroke-miterlimit:4;stroke-dasharray:none" />
    
    <path
       id="path2283"
       d="M 1567.0932,337.55891 C 1217.6076,-63.959007 885.71516,237.94346 374.10307,317.35585 645.99535,-78.115797 1121.8872,241.27595 1567.0932,337.55891 Z"
       style="display:inline;fill:none;stroke:#000000;stroke-width:1px;stroke-linecap:butt;stroke-linejoin:miter;stroke-opacity:1" />
  </g>
  <g
     id="layer5">
    <path
       id="path1998"
       d="M 984.51451,417.31912 V 1015.2488"
       style="fill:none;stroke:#000000;stroke-width:6.76180458;stroke-linecap:butt;stroke-linejoin:miter;stroke-miterlimit:4;stroke-dasharray:none;stroke-opacity:1" />
  </g>
</svg>
